<svg width="65" height="65" viewBox="0 0 65 65" fill="none" xmlns="http://www.w3.org/2000/svg">
<g clip-path="url(#clip0_1_539)">
<path d="M65 32.5C65 50.433 50.433 65 32.5 65C14.567 65 0 50.4911 0 32.5C0 14.567 14.567 0 32.5 0C50.4911 0 65 14.567 65 32.5Z" fill="#9C9C9C"/>
<path d="M38.0712 19.5001C39.406 17.8751 40.2765 15.6117 40.0444 13.3483C38.1292 13.4063 35.8658 14.6251 34.473 16.2501C33.2542 17.7009 32.2096 20.0224 32.4417 22.2277C34.589 22.4018 36.7364 21.1251 38.0712 19.5001Z" fill="white"/>
<path d="M42.8303 33.8349C42.8303 32.2679 43.1785 30.9911 43.7588 29.9465C44.9196 27.6831 46.8347 26.5804 46.9508 26.4643C44.7454 23.1563 41.2633 22.692 40.0446 22.634C37.0847 22.3438 34.299 24.375 32.7901 24.375C31.2812 24.375 28.9597 22.634 26.5222 22.692C23.3303 22.75 20.3704 24.6072 18.6874 27.509C18.1651 28.4375 17.8169 29.3661 17.5267 30.4108C16.1338 36.0402 18.3392 42.9465 21.0669 47.009C22.6338 49.3304 24.549 52 27.0446 51.884C29.424 51.7679 30.3526 50.317 33.2544 50.317C36.1562 50.317 36.9687 51.884 39.5222 51.8259C42.0758 51.7679 43.7588 49.4465 45.3258 47.067C47.1249 44.3393 47.8794 41.7277 47.9374 41.6116C47.8794 41.5536 42.8883 39.6384 42.8303 33.8349Z" fill="white"/>
</g>
<defs>
<clipPath id="clip0_1_539">
<rect width="65" height="65" fill="white"/>
</clipPath>
</defs>
</svg>
