<svg width="65" height="65" viewBox="0 0 65 65" fill="none" xmlns="http://www.w3.org/2000/svg">
<g clip-path="url(#clip0_1_529)">
<path d="M32.9676 64.9971C50.915 64.7387 65.2549 49.98 64.9965 32.0325C64.7381 14.0851 49.9794 -0.254765 32.0319 0.00360884C14.0844 0.261982 -0.255391 15.0207 0.00298302 32.9682C0.261357 50.9156 15.0201 65.2555 32.9676 64.9971Z" fill="#6081C4"/>
<path d="M35.4016 24.8974V21.8215C35.4016 20.3126 36.3883 19.9643 37.0847 19.9643C37.7811 19.9643 41.3793 19.9643 41.3793 19.9643V13.3483H35.4016C28.7856 13.3483 27.2766 18.2813 27.2766 21.4152V24.8974H23.4463V29.5402V32.6161H27.2766C27.2766 41.3215 27.2766 51.884 27.2766 51.884H34.9954C34.9954 51.884 34.9954 41.2634 34.9954 32.6161H40.6829L40.9731 29.5983L41.3793 24.8974H35.4016Z" fill="white"/>
</g>
<defs>
<clipPath id="clip0_1_529">
<rect width="65" height="65" fill="white"/>
</clipPath>
</defs>
</svg>
