<svg width="65" height="65" viewBox="0 0 65 65" fill="none" xmlns="http://www.w3.org/2000/svg">
<g clip-path="url(#clip0_1_533)">
<path d="M65 32.5C65 50.433 50.433 65 32.5 65C14.567 65 0 50.4911 0 32.5C0 14.567 14.567 0 32.5 0C50.4911 0 65 14.567 65 32.5Z" fill="#E62B33"/>
<path d="M46.3126 31.9196C46.0805 31.9196 45.8484 31.9196 45.6162 31.9196C45.6162 31.8616 45.6162 31.8035 45.6162 31.8035C45.6162 31.6294 45.6162 31.4553 45.6162 31.3392C45.6162 30.4687 45.6162 29.5401 45.6162 28.6696C45.6162 28.5535 45.4421 28.2633 45.3841 28.2633C44.5716 28.2053 43.7591 28.2633 42.8885 28.2633C42.8885 29.308 42.8885 30.3526 42.8885 31.3973C42.8885 31.6294 42.8885 31.8035 42.8885 32.0357C41.6117 32.0357 40.451 32.0357 39.1162 32.0357C39.1162 32.3258 39.1162 32.4999 39.1162 32.6741C39.1162 33.3705 39.1742 34.0089 39.2323 34.7053C39.8707 34.7053 40.5671 34.7633 41.2055 34.7633C41.7859 34.7633 42.3082 34.7633 42.9466 34.7633C42.9466 36.0401 42.9466 37.2589 42.9466 38.4196C43.8751 38.4196 44.7457 38.4196 45.6742 38.4196C45.6742 37.2008 45.6742 35.9821 45.6742 34.7053C46.951 34.7053 48.1698 34.7053 49.3885 34.7053C49.3885 34.0089 49.3885 33.3124 49.3885 32.616C49.3885 32.3839 49.3885 32.1517 49.3885 31.9196C48.3439 31.9196 47.3573 31.9196 46.3126 31.9196Z" fill="white"/>
<path d="M35.7501 31.5714C33.4287 31.6295 31.1073 31.5714 28.7278 31.5714C28.0894 31.5714 27.393 31.5714 26.7546 31.5714C26.6385 31.5714 26.4064 31.7455 26.4064 31.8036C26.4064 33.1384 26.4064 34.4732 26.4064 35.9241C28.3216 35.9241 30.1787 35.9241 32.0939 35.9241C32.0359 36.2143 31.9778 36.3884 31.9198 36.6205C31.0492 39.2321 28.3796 40.5089 25.4778 40.0446C21.8796 39.4643 19.6742 36.1562 20.3126 32.558C20.4287 32.0357 20.5448 31.5714 20.7769 31.1071C21.9376 28.4955 24.8975 26.9286 27.7412 27.567C28.7859 27.7991 29.6564 28.3214 30.4109 28.9598C31.4555 27.9152 32.4421 26.8705 33.5448 25.8259C33.4867 25.7679 33.3707 25.7098 33.2546 25.6518C30.7591 23.5045 27.8573 22.75 24.6073 23.2723C19.9644 24.0268 16.5984 27.683 15.8439 31.9777C15.4957 33.8348 15.6698 35.75 16.4242 37.6652C18.2234 42.192 22.8082 44.9777 27.6832 44.4553C30.0626 44.1652 32.21 43.3527 33.893 41.5536C36.3305 38.942 36.9689 35.75 36.6207 32.3259C36.5046 31.6875 36.2725 31.5714 35.7501 31.5714Z" fill="white"/>
</g>
<defs>
<clipPath id="clip0_1_533">
<rect width="65" height="65" fill="white"/>
</clipPath>
</defs>
</svg>
