<svg width="21" height="25" viewBox="0 0 21 25" fill="none" xmlns="http://www.w3.org/2000/svg">
<path d="M10.271 12.0426C11.9254 12.0426 13.3579 11.4492 14.5286 10.2785C15.6989 9.10795 16.2925 7.67573 16.2925 6.02111C16.2925 4.36706 15.6991 2.93464 14.5284 1.76372C13.3577 0.593375 11.9253 0 10.271 0C8.61639 0 7.18416 0.593375 6.01362 1.76391C4.84308 2.93445 4.24951 4.36687 4.24951 6.02111C4.24951 7.67573 4.84308 9.10814 6.01362 10.2787C7.18454 11.449 8.61696 12.0426 10.271 12.0426ZM7.04969 2.79979C7.94786 1.90162 9.00148 1.46503 10.271 1.46503C11.5404 1.46503 12.5942 1.90162 13.4925 2.79979C14.3907 3.69815 14.8275 4.75196 14.8275 6.02111C14.8275 7.29064 14.3907 8.34425 13.4925 9.24261C12.5942 10.141 11.5404 10.5776 10.271 10.5776C9.00186 10.5776 7.94824 10.1408 7.04969 9.24261C6.15133 8.34444 5.71455 7.29064 5.71455 6.02111C5.71455 4.75196 6.15133 3.69815 7.04969 2.79979Z" fill="#F41671"/>
<path d="M20.8071 19.2237C20.7733 18.7366 20.705 18.2052 20.6045 17.644C20.503 17.0787 20.3724 16.5443 20.216 16.0558C20.0542 15.5509 19.8347 15.0523 19.5629 14.5745C19.2812 14.0786 18.9501 13.6468 18.5785 13.2915C18.19 12.9197 17.7143 12.6209 17.1642 12.4028C16.6161 12.186 16.0086 12.0761 15.3587 12.0761C15.1035 12.0761 14.8567 12.1808 14.3801 12.4912C14.0867 12.6825 13.7436 12.9037 13.3606 13.1484C13.0331 13.3571 12.5895 13.5526 12.0415 13.7296C11.5068 13.9026 10.964 13.9903 10.428 13.9903C9.89246 13.9903 9.34963 13.9026 8.81462 13.7296C8.26721 13.5528 7.82337 13.3573 7.49645 13.1486C7.11708 12.9062 6.77376 12.6849 6.47602 12.491C5.99976 12.1806 5.75294 12.0759 5.49774 12.0759C4.84772 12.0759 4.24042 12.186 3.69244 12.403C3.14274 12.6207 2.66685 12.9195 2.27795 13.2917C1.90639 13.6472 1.57528 14.0788 1.29375 14.5745C1.02234 15.0523 0.802612 15.5507 0.640869 16.056C0.484657 16.5445 0.354004 17.0787 0.252533 17.644C0.151825 18.2044 0.0837326 18.736 0.0499726 19.2243C0.0167847 19.7017 0 20.1985 0 20.7006C0 22.0056 0.414848 23.062 1.23291 23.8412C2.04086 24.61 3.10974 24.9999 4.40998 24.9999H16.4476C17.7475 24.9999 18.8164 24.61 19.6245 23.8412C20.4428 23.0626 20.8576 22.0058 20.8576 20.7004C20.8574 20.1966 20.8405 19.6998 20.8071 19.2237ZM18.6144 22.7798C18.0805 23.2879 17.3717 23.5349 16.4474 23.5349H4.40998C3.48549 23.5349 2.77672 23.2879 2.24304 22.7799C1.71947 22.2816 1.46503 21.6012 1.46503 20.7006C1.46503 20.2321 1.48048 19.7696 1.51138 19.3256C1.54152 18.8899 1.60313 18.4114 1.69449 17.9029C1.78471 17.4007 1.89953 16.9294 2.03609 16.5027C2.16713 16.0936 2.34585 15.6884 2.56748 15.2982C2.77901 14.9263 3.02238 14.6072 3.29094 14.3501C3.54214 14.1095 3.85876 13.9127 4.23183 13.7651C4.57687 13.6285 4.96464 13.5537 5.38559 13.5425C5.4369 13.5698 5.52826 13.6218 5.67627 13.7183C5.97744 13.9146 6.32458 14.1385 6.70834 14.3836C7.14092 14.6594 7.69825 14.9085 8.36411 15.1235C9.04484 15.3436 9.73911 15.4554 10.4282 15.4554C11.1174 15.4554 11.8118 15.3436 12.4922 15.1237C13.1586 14.9083 13.7157 14.6594 14.1489 14.3832C14.5416 14.1322 14.879 13.9148 15.1802 13.7183C15.3282 13.622 15.4196 13.5698 15.4709 13.5425C15.892 13.5537 16.2798 13.6285 16.625 13.7651C16.9979 13.9127 17.3145 14.1097 17.5657 14.3501C17.8343 14.607 18.0777 14.9261 18.2892 15.2984C18.511 15.6884 18.6899 16.0938 18.8208 16.5025C18.9575 16.9297 19.0725 17.4009 19.1626 17.9027C19.2537 18.4121 19.3155 18.8909 19.3457 19.3257V19.3261C19.3768 19.7684 19.3924 20.2308 19.3926 20.7006C19.3924 21.6014 19.138 22.2816 18.6144 22.7798Z" fill="#F41671"/>
</svg>
