<svg width="237" height="41" viewBox="0 0 237 41" fill="none" xmlns="http://www.w3.org/2000/svg">
<g clip-path="url(#clip0_3_1240)">
<mask id="mask0_3_1240" style="mask-type:luminance" maskUnits="userSpaceOnUse" x="0" y="1" width="22" height="29">
<path d="M12.3094 1.53104C12.131 1.53104 11.9673 1.63263 11.8882 1.79334L3.96874 17.6976C3.81241 18.0116 4.04046 18.3829 4.38991 18.3829C4.73935 18.3829 4.96741 18.7541 4.81108 19.0682L0.156122 28.4204C-0.000207849 28.7345 0.22785 29.1057 0.577294 29.1057H12.4878C12.6662 29.1057 12.8299 29.0041 12.909 28.8434L15.4875 23.6621C15.6438 23.3481 15.4158 22.9768 15.0663 22.9768H10.4905C10.141 22.9768 9.91296 22.6055 10.0693 22.2915L11.6749 19.0663C11.8312 18.7523 11.6032 18.381 11.2537 18.381C10.9043 18.381 10.6762 18.0116 10.8325 17.6957L12.6496 14.0457C12.7306 13.885 12.8924 13.7834 13.0708 13.7834H18.5884C18.7668 13.7834 18.9304 13.6818 19.0095 13.5211L21.588 8.33974C21.7444 8.02572 21.5163 7.65444 21.1669 7.65444H16.591C16.2416 7.65444 16.0135 7.285 16.1698 6.96913L18.5387 2.21265C18.695 1.89863 18.467 1.52734 18.1175 1.52734H12.3076L12.3094 1.53104Z" fill="white"/>
</mask>
<g mask="url(#mask0_3_1240)">
<path d="M21.7464 1.53125H0V29.1041H21.7464V1.53125Z" fill="white"/>
</g>
<mask id="mask1_3_1240" style="mask-type:luminance" maskUnits="userSpaceOnUse" x="14" y="7" width="27" height="23">
<path d="M24.7957 22.2933L26.4013 19.0681C26.5577 18.7541 26.3296 18.3828 25.9802 18.3828C25.6307 18.3828 25.4027 18.0134 25.559 17.6975L27.3761 14.0475C27.4552 13.8868 27.6189 13.7852 27.7973 13.7852H30.556C30.9055 13.7852 31.1335 14.1565 30.9772 14.4705L29.3716 17.6957C29.2153 18.0097 29.4433 18.381 29.7928 18.381C30.1422 18.381 30.3703 18.7523 30.2139 19.0663L28.3968 22.7145C28.3178 22.8752 28.1541 22.9768 27.9757 22.9768H25.2169C24.8675 22.9768 24.6394 22.6055 24.7957 22.2915M23.9828 7.6581C23.8044 7.6581 23.6407 7.75969 23.5616 7.9204L18.6952 17.6975C18.5389 18.0115 18.7669 18.3828 19.1164 18.3828C19.4658 18.3828 19.6939 18.7541 19.5375 19.0681L14.8807 28.4204C14.7244 28.7344 14.9525 29.1057 15.3019 29.1057H31.7883C31.9667 29.1057 32.1304 29.0041 32.2095 28.8434L37.0759 19.0663C37.2322 18.7523 37.0042 18.381 36.6547 18.381C36.3035 18.381 36.0772 18.0115 36.2336 17.6957L40.8904 8.34155C41.0467 8.02753 40.8186 7.65625 40.4692 7.65625H23.9828V7.6581Z" fill="white"/>
</mask>
<g mask="url(#mask1_3_1240)">
<path d="M41.0469 7.6582H14.7246V29.104H41.0469V7.6582Z" fill="white"/>
</g>
<mask id="mask2_3_1240" style="mask-type:luminance" maskUnits="userSpaceOnUse" x="31" y="7" width="31" height="29">
<path d="M44.9017 22.2932L46.5073 19.068C46.6637 18.754 46.4356 18.3827 46.0862 18.3827C45.7367 18.3827 45.5087 18.0133 45.665 17.6974L47.4821 14.0474C47.5612 13.8867 47.7249 13.7851 47.9033 13.7851H50.662C51.0115 13.7851 51.2395 14.1564 51.0832 14.4704L49.4776 17.6956C49.3213 18.0096 49.5493 18.3809 49.8988 18.3809C50.2482 18.3809 50.4763 18.7522 50.3199 19.0662L48.5028 22.7144C48.4238 22.8751 48.2601 22.9767 48.0817 22.9767H45.3229C44.9716 22.9767 44.7436 22.6054 44.9017 22.2913M44.0888 7.65799C43.9104 7.65799 43.7467 7.75959 43.6676 7.92029L38.8012 17.6974C38.6449 18.0114 38.8729 18.3827 39.2224 18.3827C39.5718 18.3827 39.7999 18.754 39.6435 19.068L31.9374 34.5474C31.781 34.8633 32.0091 35.2327 32.3585 35.2327H38.1685C38.3469 35.2327 38.5106 35.1311 38.5897 34.9704L41.3797 29.366C41.4588 29.2053 41.6225 29.1037 41.8009 29.1037H51.8943C52.0727 29.1037 52.2364 29.0021 52.3155 28.8414L57.1819 19.0643C57.3382 18.7503 57.1102 18.379 56.7607 18.379C56.4113 18.379 56.1832 18.0096 56.3396 17.6937L60.9964 8.3396C61.1527 8.02558 60.9246 7.6543 60.5752 7.6543H44.0888V7.65799Z" fill="white"/>
</mask>
<g mask="url(#mask2_3_1240)">
<path d="M61.1547 7.6582H31.7812V35.2311H61.1547V7.6582Z" fill="white"/>
</g>
<mask id="mask3_3_1240" style="mask-type:luminance" maskUnits="userSpaceOnUse" x="55" y="7" width="27" height="23">
<path d="M64.2204 7.6582C64.042 7.6582 63.8783 7.7598 63.7992 7.9205L58.9327 17.6958C58.7764 18.0116 59.0044 18.3811 59.3539 18.3811C59.7033 18.3811 59.9314 18.7524 59.7751 19.0664L58.9327 20.7602C58.7764 21.0743 59.0044 21.4456 59.3539 21.4456H68.5056C68.8551 21.4456 69.0831 21.815 68.9268 22.1309L68.6362 22.7164C68.5571 22.8771 68.3934 22.9787 68.215 22.9787H58.1216C57.9432 22.9787 57.7796 23.0803 57.7005 23.241L55.1219 28.4223C54.9656 28.7364 55.1937 29.1077 55.5431 29.1077H72.0295C72.2079 29.1077 72.3716 29.0061 72.4507 28.8454L77.3171 19.0701C77.4735 18.7561 77.2454 18.3848 76.896 18.3848C76.5465 18.3848 76.3185 18.0135 76.4748 17.6995L77.3171 16.0075C77.4735 15.6916 77.2454 15.3222 76.896 15.3222H67.7442C67.3929 15.3222 67.1667 14.9509 67.323 14.6368L67.6136 14.0513C67.6927 13.8906 67.8564 13.789 68.0348 13.789H78.1282C78.3066 13.789 78.4703 13.6874 78.5494 13.5267L81.1279 8.34535C81.2842 8.03133 81.0562 7.66005 80.7067 7.66005H64.2204V7.6582Z" fill="white"/>
</mask>
<g mask="url(#mask3_3_1240)">
<path d="M81.2842 7.6582H54.9619V29.104H81.2842V7.6582Z" fill="white"/>
</g>
<mask id="mask4_3_1240" style="mask-type:luminance" maskUnits="userSpaceOnUse" x="75" y="1" width="22" height="29">
<path d="M87.4012 1.53104C87.2228 1.53104 87.0591 1.63263 86.98 1.79334L79.0624 17.6976C78.906 18.0116 79.1341 18.3829 79.4835 18.3829C79.8348 18.3829 80.061 18.7541 79.9047 19.0682L75.2479 28.4204C75.0916 28.7345 75.3196 29.1057 75.6691 29.1057H87.5796C87.758 29.1057 87.9217 29.0041 88.0008 28.8434L90.5793 23.6621C90.7356 23.3481 90.5076 22.9768 90.1581 22.9768H85.5822C85.231 22.9768 85.0048 22.6055 85.1611 22.2915L86.7667 19.0663C86.923 18.7523 86.695 18.381 86.3455 18.381C85.9961 18.381 85.768 18.0116 85.9243 17.6957L87.7414 14.0457C87.8205 13.885 87.9842 13.7834 88.1626 13.7834H93.6801C93.8585 13.7834 94.0222 13.6818 94.1013 13.5211L96.6798 8.33974C96.8362 8.02572 96.6081 7.65444 96.2587 7.65444H91.6828C91.3334 7.65444 91.1053 7.285 91.2616 6.96913L93.6305 2.21265C93.7868 1.89863 93.5588 1.52734 93.2093 1.52734H87.3994L87.4012 1.53104Z" fill="white"/>
</mask>
<g mask="url(#mask4_3_1240)">
<path d="M96.8382 1.53125H75.0918V29.1041H96.8382V1.53125Z" fill="white"/>
</g>
<mask id="mask5_3_1240" style="mask-type:luminance" maskUnits="userSpaceOnUse" x="90" y="7" width="23" height="23">
<path d="M99.6942 7.65799C99.5158 7.65799 99.3522 7.75959 99.2731 7.92029L94.4066 17.6974C94.2503 18.0114 94.4783 18.3827 94.8278 18.3827C95.1772 18.3827 95.4053 18.754 95.249 19.068L90.5922 28.4203C90.4358 28.7343 90.6639 29.1056 91.0133 29.1056H96.8233C97.0017 29.1056 97.1654 29.004 97.2445 28.8433L102.111 19.0662C102.267 18.7522 102.039 18.3809 101.69 18.3809C101.34 18.3809 101.112 18.0114 101.269 17.6956L103.086 14.0455C103.165 13.8848 103.328 13.7832 103.507 13.7832H109.024C109.203 13.7832 109.366 13.6816 109.446 13.5209L112.024 8.3396C112.18 8.02558 111.952 7.6543 111.603 7.6543H99.6924L99.6942 7.65799Z" fill="white"/>
</mask>
<g mask="url(#mask5_3_1240)">
<path d="M112.182 7.6582H90.436V29.104H112.182V7.6582Z" fill="white"/>
</g>
<mask id="mask6_3_1240" style="mask-type:luminance" maskUnits="userSpaceOnUse" x="105" y="7" width="27" height="23">
<path d="M117.667 14.633L117.958 14.0475C118.037 13.8868 118.2 13.7852 118.379 13.7852H121.138C121.489 13.7852 121.717 14.1565 121.559 14.4705L121.266 15.0561C121.187 15.2168 121.024 15.3184 120.845 15.3184H118.086C117.737 15.3184 117.509 14.9471 117.665 14.633M114.564 7.6581C114.386 7.6581 114.222 7.75969 114.143 7.9204L109.277 17.6957C109.12 18.0097 109.348 18.381 109.698 18.381C110.047 18.381 110.275 18.7523 110.119 19.0663L105.462 28.4186C105.306 28.7326 105.534 29.1039 105.883 29.1039H122.37C122.548 29.1039 122.712 29.0023 122.791 28.8416L125.37 23.6621C125.526 23.348 125.298 22.9768 124.948 22.9768H115.797C115.445 22.9768 115.219 22.6055 115.375 22.2915L115.666 21.7059C115.745 21.5452 115.909 21.4436 116.087 21.4436H126.181C126.359 21.4436 126.523 21.342 126.602 21.1813L127.656 19.0644C127.812 18.7504 127.584 18.3791 127.234 18.3791C126.885 18.3791 126.657 18.0078 126.813 17.6938L131.47 8.34155C131.626 8.02753 131.398 7.65625 131.049 7.65625H114.563L114.564 7.6581Z" fill="white"/>
</mask>
<g mask="url(#mask6_3_1240)">
<path d="M131.63 7.6582H105.308V29.104H131.63V7.6582Z" fill="white"/>
</g>
<mask id="mask7_3_1240" style="mask-type:luminance" maskUnits="userSpaceOnUse" x="125" y="1" width="23" height="29">
<path d="M137.747 1.53104C137.569 1.53104 137.405 1.63263 137.326 1.79334L129.408 17.6976C129.252 18.0116 129.48 18.3829 129.829 18.3829C130.179 18.3829 130.407 18.7541 130.25 19.0682L125.594 28.4204C125.437 28.7345 125.665 29.1057 126.015 29.1057H137.925C138.104 29.1057 138.267 29.0041 138.346 28.8434L140.925 23.6621C141.081 23.3481 140.853 22.9768 140.504 22.9768H135.928C135.577 22.9768 135.35 22.6055 135.507 22.2915L137.112 19.0663C137.269 18.7523 137.041 18.381 136.691 18.381C136.342 18.381 136.114 18.0116 136.27 17.6957L138.087 14.0457C138.166 13.885 138.33 13.7834 138.508 13.7834H144.026C144.204 13.7834 144.368 13.6818 144.447 13.5211L147.026 8.33974C147.182 8.02572 146.954 7.65444 146.604 7.65444H142.029C141.679 7.65444 141.451 7.285 141.607 6.96913L143.976 2.21265C144.133 1.89863 143.904 1.52734 143.555 1.52734H137.745L137.747 1.53104Z" fill="white"/>
</mask>
<g mask="url(#mask7_3_1240)">
<path d="M147.185 1.53125H125.439V29.1041H147.185V1.53125Z" fill="white"/>
</g>
<mask id="mask8_3_1240" style="mask-type:luminance" maskUnits="userSpaceOnUse" x="140" y="7" width="27" height="23">
<path d="M150.042 7.65799C149.863 7.65799 149.7 7.75959 149.621 7.92029L144.754 17.6974C144.598 18.0114 144.826 18.3827 145.175 18.3827C145.527 18.3827 145.753 18.754 145.597 19.068L140.94 28.4203C140.783 28.7343 141.012 29.1056 141.361 29.1056H157.847C158.026 29.1056 158.189 29.004 158.269 28.8433L160.847 23.662C161.003 23.3479 160.775 22.9767 160.426 22.9767H151.274C150.923 22.9767 150.697 22.6054 150.853 22.2913L152.459 19.0662C152.615 18.7522 152.387 18.3809 152.037 18.3809C151.688 18.3809 151.46 18.0114 151.616 17.6956L153.433 14.0455C153.512 13.8848 153.676 13.7832 153.855 13.7832H163.948C164.126 13.7832 164.29 13.6816 164.369 13.5209L166.948 8.3396C167.104 8.02558 166.876 7.6543 166.526 7.6543H150.04L150.042 7.65799Z" fill="white"/>
</mask>
<g mask="url(#mask8_3_1240)">
<path d="M167.106 7.6582H140.784V29.104H167.106V7.6582Z" fill="white"/>
</g>
<mask id="mask9_3_1240" style="mask-type:luminance" maskUnits="userSpaceOnUse" x="160" y="1" width="27" height="29">
<path d="M172.993 1.53083C172.815 1.53083 172.651 1.63242 172.572 1.79313L164.654 17.6973C164.498 18.0114 164.726 18.3826 165.075 18.3826C165.427 18.3826 165.653 18.7539 165.497 19.068L160.84 28.4202C160.683 28.7342 160.911 29.1055 161.261 29.1055H167.071C167.249 29.1055 167.413 29.0039 167.492 28.8432L172.358 19.0661C172.515 18.7521 172.287 18.3808 171.937 18.3808C171.588 18.3808 171.36 18.0114 171.516 17.6955L173.333 14.0455C173.412 13.8848 173.576 13.7832 173.754 13.7832H176.513C176.864 13.7832 177.091 14.1545 176.934 14.4685L175.329 17.6936C175.172 18.0077 175.4 18.379 175.75 18.379C176.099 18.379 176.327 18.7502 176.171 19.0643L171.514 28.4165C171.358 28.7305 171.586 29.1018 171.935 29.1018H177.745C177.924 29.1018 178.088 29.0002 178.167 28.8395L183.033 19.0624C183.189 18.7484 182.961 18.3771 182.612 18.3771C182.262 18.3771 182.034 18.0077 182.191 17.6918L186.848 8.33768C187.004 8.02366 186.776 7.65238 186.426 7.65238H177.275C176.925 7.65238 176.697 7.28294 176.853 6.96708L179.222 2.20874C179.379 1.89472 179.151 1.52344 178.801 1.52344H172.991L172.993 1.53083Z" fill="white"/>
</mask>
<g mask="url(#mask9_3_1240)">
<path d="M187.007 1.53125H160.685V29.1041H187.007V1.53125Z" fill="white"/>
</g>
<mask id="mask10_3_1240" style="mask-type:luminance" maskUnits="userSpaceOnUse" x="180" y="0" width="21" height="30">
<path d="M190.073 7.65841C189.895 7.65841 189.731 7.76 189.652 7.92071L184.786 17.6978C184.629 18.0118 184.857 18.3831 185.207 18.3831C185.556 18.3831 185.784 18.7544 185.628 19.0684L180.971 28.4207C180.815 28.7347 181.043 29.106 181.392 29.106H187.202C187.381 29.106 187.544 29.0044 187.623 28.8437L192.49 19.0666C192.646 18.7526 192.418 18.3813 192.069 18.3813C191.719 18.3813 191.491 18.0119 191.647 17.696L196.304 8.34186C196.461 8.02784 196.233 7.65656 195.883 7.65656H190.073V7.65841ZM193.886 0C193.707 0 193.544 0.101595 193.465 0.2623L190.886 5.44364C190.73 5.75766 190.958 6.12894 191.307 6.12894H197.117C197.296 6.12894 197.459 6.02735 197.538 5.86664L200.117 0.685304C200.273 0.371283 200.045 0 199.696 0L193.886 0Z" fill="white"/>
</mask>
<g mask="url(#mask10_3_1240)">
<path d="M200.273 0H180.815V29.106H200.273V0Z" fill="white"/>
</g>
<mask id="mask11_3_1240" style="mask-type:luminance" maskUnits="userSpaceOnUse" x="190" y="7" width="27" height="23">
<path d="M199.665 7.65886C199.487 7.65886 199.323 7.76046 199.244 7.92116L194.377 17.6983C194.221 18.0123 194.449 18.3836 194.798 18.3836C195.15 18.3836 195.376 18.7549 195.22 19.0689L190.563 28.4212C190.407 28.7352 190.635 29.1065 190.984 29.1065H196.794C196.972 29.1065 197.136 29.0049 197.215 28.8442L202.082 19.067C202.238 18.753 202.01 18.3817 201.66 18.3817C201.311 18.3817 201.083 18.0123 201.239 17.6964L203.056 14.0464C203.135 13.8857 203.299 13.7841 203.478 13.7841H206.236C206.586 13.7841 206.814 14.1554 206.657 14.4694L205.052 17.6946C204.896 18.0086 205.124 18.3799 205.473 18.3799C205.822 18.3799 206.051 18.7512 205.894 19.0652L201.239 28.4175C201.083 28.7315 201.311 29.1028 201.66 29.1028H207.47C207.649 29.1028 207.812 29.0012 207.892 28.8405L212.758 19.0633C212.914 18.7493 212.686 18.378 212.337 18.378C211.987 18.378 211.759 18.0086 211.916 17.6927L216.573 8.33862C216.729 8.0246 216.501 7.65332 216.151 7.65332H199.665V7.65886Z" fill="white"/>
</mask>
<g mask="url(#mask11_3_1240)">
<path d="M216.729 7.65918H190.407V29.1049H216.729V7.65918Z" fill="white"/>
</g>
<mask id="mask12_3_1240" style="mask-type:luminance" maskUnits="userSpaceOnUse" x="206" y="7" width="31" height="30">
<path d="M220.747 22.2934L222.353 19.0682C222.509 18.7542 222.281 18.3829 221.932 18.3829C221.582 18.3829 221.354 18.0135 221.51 17.6976L223.328 14.0476C223.407 13.8869 223.57 13.7853 223.749 13.7853H226.507C226.857 13.7853 227.085 14.1566 226.929 14.4706L225.323 17.6958C225.167 18.0098 225.395 18.3811 225.744 18.3811C226.094 18.3811 226.322 18.7524 226.165 19.0664L224.348 22.7146C224.269 22.8753 224.105 22.9769 223.927 22.9769H221.168C220.819 22.9769 220.591 22.6056 220.747 22.2916M219.934 7.6582C219.756 7.6582 219.592 7.7598 219.513 7.9205L214.647 17.6976C214.49 18.0116 214.718 18.3829 215.068 18.3829C215.417 18.3829 215.645 18.7542 215.489 19.0682L210.832 28.4205C210.676 28.7345 210.904 29.1058 211.253 29.1058H220.405C220.756 29.1058 220.983 29.4752 220.826 29.7911L220.536 30.3767C220.457 30.5374 220.293 30.639 220.114 30.639H210.021C209.843 30.639 209.679 30.7406 209.6 30.9013L207.021 36.0826C206.865 36.3966 207.093 36.7679 207.443 36.7679H223.929C224.107 36.7679 224.271 36.6663 224.35 36.5056L233.031 19.0701C233.187 18.7561 232.959 18.3848 232.61 18.3848C232.259 18.3848 232.032 18.0153 232.189 17.6995L236.845 8.34535C237.002 8.03133 236.774 7.66005 236.424 7.66005H219.938L219.934 7.6582Z" fill="white"/>
</mask>
<g mask="url(#mask12_3_1240)">
<path d="M237 7.6582H206.865V36.7642H237V7.6582Z" fill="white"/>
</g>
<mask id="mask13_3_1240" style="mask-type:luminance" maskUnits="userSpaceOnUse" x="126" y="34" width="6" height="7">
<path d="M129.857 34.8525L126.563 40.8891H131.442L131.963 39.9323H128.439L131.223 34.8525H129.857Z" fill="white"/>
</mask>
<g mask="url(#mask13_3_1240)">
<path d="M131.963 34.8525H126.563V40.8891H131.963V34.8525Z" fill="white"/>
</g>
<mask id="mask14_3_1240" style="mask-type:luminance" maskUnits="userSpaceOnUse" x="132" y="34" width="5" height="7">
<path d="M135.516 34.8525L132.224 40.8891H133.589L136.883 34.8525H135.516Z" fill="white"/>
</mask>
<g mask="url(#mask14_3_1240)">
<path d="M136.883 34.8525H132.224V40.8891H136.883V34.8525Z" fill="white"/>
</g>
<mask id="mask15_3_1240" style="mask-type:luminance" maskUnits="userSpaceOnUse" x="135" y="34" width="9" height="7">
<path d="M138.455 34.8525L135.161 40.8891H136.528L137.841 38.4712H141.067L141.585 37.5217H138.359L139.303 35.802H142.735L143.252 34.8525H138.455Z" fill="white"/>
</mask>
<g mask="url(#mask15_3_1240)">
<path d="M143.254 34.8525H135.161V40.8891H143.254V34.8525Z" fill="white"/>
</g>
<mask id="mask16_3_1240" style="mask-type:luminance" maskUnits="userSpaceOnUse" x="140" y="34" width="10" height="7">
<path d="M144.245 34.8525L140.951 40.8891H145.738L146.248 39.9323H142.827L143.7 38.3419H146.913L147.432 37.3943H144.217L145.093 35.802H148.513L149.03 34.8525H144.245Z" fill="white"/>
</mask>
<g mask="url(#mask16_3_1240)">
<path d="M149.032 34.8525H140.951V40.8891H149.032V34.8525Z" fill="white"/>
</g>
<mask id="mask17_3_1240" style="mask-type:luminance" maskUnits="userSpaceOnUse" x="150" y="34" width="5" height="7">
<path d="M153.404 34.8525L150.112 40.8891H151.476L154.77 34.8525H153.404Z" fill="white"/>
</mask>
<g mask="url(#mask17_3_1240)">
<path d="M154.77 34.8525H150.112V40.8891H154.77V34.8525Z" fill="white"/>
</g>
<mask id="mask18_3_1240" style="mask-type:luminance" maskUnits="userSpaceOnUse" x="153" y="34" width="9" height="7">
<path d="M160.439 34.8525L158.18 39.0032L157.729 34.8525H156.341L153.047 40.8891H154.391L156.631 36.7681L157.089 40.8891H158.489L161.781 34.8525H160.439Z" fill="white"/>
</mask>
<g mask="url(#mask18_3_1240)">
<path d="M161.781 34.8525H153.047V40.8891H161.781V34.8525Z" fill="white"/>
</g>
<mask id="mask19_3_1240" style="mask-type:luminance" maskUnits="userSpaceOnUse" x="163" y="34" width="11" height="7">
<path d="M171.816 34.8525L167.54 39.2433L168.049 34.8525H166.397L163.104 40.8891H164.446L166.591 36.9602L166.111 40.8891H167.339L171.062 37.0618L168.969 40.8891H170.311L173.605 34.8525H171.816Z" fill="white"/>
</mask>
<g mask="url(#mask19_3_1240)">
<path d="M173.605 34.8525H163.104V40.8891H173.605V34.8525Z" fill="white"/>
</g>
<mask id="mask20_3_1240" style="mask-type:luminance" maskUnits="userSpaceOnUse" x="172" y="34" width="8" height="7">
<path d="M174.227 39.7712C174.021 39.5976 173.96 39.3556 174.041 39.0489C174.067 38.951 174.119 38.8347 174.192 38.698L175.147 36.9783C175.38 36.5608 175.682 36.2431 176.05 36.027C176.419 35.809 176.844 35.7 177.326 35.7C177.769 35.7 178.093 35.7887 178.299 35.966C178.503 36.1452 178.566 36.3872 178.483 36.6938C178.455 36.7991 178.402 36.921 178.327 37.0614L177.372 38.7811C177.15 39.1856 176.85 39.496 176.475 39.7102C176.099 39.9245 175.675 40.0316 175.2 40.0316C174.757 40.0316 174.431 39.9448 174.225 39.7693M175.395 35.2973C174.74 35.6686 174.233 36.1858 173.872 36.849L172.921 38.5964C172.829 38.7682 172.761 38.94 172.715 39.1117C172.618 39.4738 172.642 39.797 172.789 40.0834C172.934 40.3678 173.19 40.5932 173.556 40.7557C173.922 40.9183 174.372 40.9996 174.909 40.9996C175.735 40.9996 176.478 40.813 177.137 40.4417C177.795 40.0704 178.305 39.5514 178.667 38.8827L179.618 37.1353C179.708 36.9709 179.774 36.8065 179.816 36.6476C179.914 36.2856 179.888 35.9605 179.739 35.6723C179.59 35.3841 179.333 35.1569 178.963 34.9907C178.593 34.8263 178.141 34.7432 177.606 34.7432C176.787 34.7432 176.05 34.9279 175.395 35.2992" fill="white"/>
</mask>
<g mask="url(#mask20_3_1240)">
<path d="M179.912 34.7432H172.618V40.9996H179.912V34.7432Z" fill="white"/>
</g>
<mask id="mask21_3_1240" style="mask-type:luminance" maskUnits="userSpaceOnUse" x="180" y="34" width="7" height="7">
<path d="M181.315 34.8525L180.81 35.802H182.842L180.054 40.8891H181.42L184.208 35.802H186.182L186.688 34.8525H181.315Z" fill="white"/>
</mask>
<g mask="url(#mask21_3_1240)">
<path d="M186.688 34.8525H180.054V40.8891H186.688V34.8525Z" fill="white"/>
</g>
<mask id="mask22_3_1240" style="mask-type:luminance" maskUnits="userSpaceOnUse" x="184" y="34" width="5" height="7">
<path d="M187.464 34.8525L184.171 40.8891H185.536L188.83 34.8525H187.464Z" fill="white"/>
</mask>
<g mask="url(#mask22_3_1240)">
<path d="M188.83 34.8525H184.171V40.8891H188.83V34.8525Z" fill="white"/>
</g>
<mask id="mask23_3_1240" style="mask-type:luminance" maskUnits="userSpaceOnUse" x="187" y="34" width="9" height="7">
<path d="M189.457 39.7712C189.251 39.5976 189.189 39.3556 189.271 39.0489C189.297 38.951 189.349 38.8347 189.422 38.698L190.377 36.9783C190.61 36.5608 190.912 36.2431 191.28 36.027C191.65 35.809 192.074 35.7 192.556 35.7C192.999 35.7 193.323 35.7887 193.529 35.966C193.733 36.1452 193.796 36.3872 193.713 36.6938C193.685 36.7991 193.632 36.921 193.557 37.0614L192.602 38.7811C192.38 39.1856 192.08 39.496 191.705 39.7102C191.33 39.9245 190.905 40.0316 190.43 40.0316C189.987 40.0316 189.661 39.9448 189.457 39.7693M190.627 35.2973C189.972 35.6686 189.465 36.1858 189.104 36.849L188.153 38.5964C188.061 38.7682 187.993 38.94 187.947 39.1117C187.85 39.4738 187.874 39.797 188.021 40.0834C188.166 40.3678 188.422 40.5932 188.788 40.7557C189.154 40.9183 189.604 40.9996 190.141 40.9996C190.967 40.9996 191.71 40.813 192.369 40.4417C193.027 40.0704 193.537 39.5514 193.899 38.8827L194.85 37.1353C194.94 36.9709 195.006 36.8065 195.048 36.6476C195.146 36.2856 195.12 35.9605 194.971 35.6723C194.822 35.3841 194.565 35.1569 194.195 34.9907C193.825 34.8263 193.373 34.7432 192.838 34.7432C192.019 34.7432 191.282 34.9279 190.627 35.2992" fill="white"/>
</mask>
<g mask="url(#mask23_3_1240)">
<path d="M195.142 34.7432H187.848V40.9996H195.142V34.7432Z" fill="white"/>
</g>
<mask id="mask24_3_1240" style="mask-type:luminance" maskUnits="userSpaceOnUse" x="194" y="34" width="9" height="7">
<path d="M201.552 34.8525L199.291 39.0032L198.843 34.8525H197.454L194.16 40.8891H195.503L197.745 36.7681L198.201 40.8891H199.602L202.894 34.8525H201.552Z" fill="white"/>
</mask>
<g mask="url(#mask24_3_1240)">
<path d="M202.894 34.8525H194.16V40.8891H202.894V34.8525Z" fill="white"/>
</g>
</g>
<defs>
<clipPath id="clip0_3_1240">
<rect width="237" height="41" fill="white"/>
</clipPath>
</defs>
</svg>
