<svg width="26" height="23" viewBox="0 0 26 23" fill="none" xmlns="http://www.w3.org/2000/svg">
<path fill-rule="evenodd" clip-rule="evenodd" d="M1 18.0833V4.41667C1 3.51051 1.35997 2.64147 2.00072 2.00072C2.64147 1.35997 3.51051 1 4.41667 1H21.5C22.4062 1 23.2752 1.35997 23.9159 2.00072C24.5567 2.64147 24.9167 3.51051 24.9167 4.41667V18.0833C24.9167 18.9895 24.5567 19.8585 23.9159 20.4993C23.2752 21.14 22.4062 21.5 21.5 21.5H4.41667C3.51051 21.5 2.64147 21.14 2.00072 20.4993C1.35997 19.8585 1 18.9895 1 18.0833Z" stroke="white" stroke-width="2" stroke-linecap="round" stroke-linejoin="round"/>
<path d="M4.4165 6.97913L12.9582 12.1041L21.4998 6.97913" stroke="white" stroke-width="2" stroke-linecap="round" stroke-linejoin="round"/>
</svg>
